# xmcd
# 
# Track frame offsets:
#     150
#     15953
#     29024
#     46027
#     64589
#     80998
#     100471
#     117498
#     135429
#     155379
#     187992
#     211004
#     237972
#     252334
#     271417
#     295055
# 
# Disc length: 4233
# 
# Revision: 2
# Processed by: cddbd v1.5.2PL0 Copyright (c) Steve Scherf et al.
# Submitted via: fre:ac v1.0.31
# 
DISCID=d9108710
DTITLE=Robert Cray - The Definitive Collection
DYEAR=2007
DGENRE=Blues
TTITLE0=Phone Booth
TTITLE1=Bad Influence
TTITLE2=Playin' In The Dirt
TTITLE3=Smoking Gun
TTITLE4=I Guess I Showed Her
TTITLE5=Right Next Door (Because Of Me)
TTITLE6=Don't Be Afraid Of The Dark
TTITLE7=The Forecast (Calls For Pain)
TTITLE8=Consequences
TTITLE9=I Was Warned
TTITLE10=I Shiver
TTITLE11=Moan
TTITLE12=Trick Or Treat
TTITLE13=Love Gone To Waste
TTITLE14=Survivor
TTITLE15=Poor Johnny
EXTD=
EXTT0=
EXTT1=
EXTT2=
EXTT3=
EXTT4=
EXTT5=
EXTT6=
EXTT7=
EXTT8=
EXTT9=
EXTT10=
EXTT11=
EXTT12=
EXTT13=
EXTT14=
EXTT15=
PLAYORDER=
